<?xml version="1.0" encoding="utf-8"?>
<!-- Generator: Adobe Illustrator 16.0.1, SVG Export Plug-In . SVG Version: 6.00 Build 0)  -->
<!DOCTYPE svg PUBLIC "-//W3C//DTD SVG 1.1//EN" "http://www.w3.org/Graphics/SVG/1.1/DTD/svg11.dtd">
<svg version="1.1" id="Layer_1" xmlns="http://www.w3.org/2000/svg" xmlns:xlink="http://www.w3.org/1999/xlink" x="0px" y="0px"
	 width="200.001px" height="75px" viewBox="0 0 200.001 75" enable-background="new 0 0 200.001 75" xml:space="preserve">
<path fill="#30BCAE" d="M20.175,34.113h2.067v-2.009c0-0.886,0.022-2.253,0.666-3.099c0.678-0.896,1.609-1.505,3.21-1.505
	c2.609,0,3.707,0.372,3.707,0.372l-0.517,3.063c0,0-0.861-0.249-1.666-0.249c-0.805,0-1.524,0.288-1.524,1.092v2.335h3.298
	l-0.23,2.992h-3.067V47.5h-3.876V37.105h-2.067V34.113z"/>
<path fill="#D1D2D1" d="M25,19.5c9.925,0,18,8.075,18,18c0,9.925-8.075,18-18,18c-9.926,0-18-8.075-18-18
	C7,27.575,15.075,19.5,25,19.5 M25,17.5c-11.046,0-20,8.954-20,20s8.955,20,20,20c11.045,0,20-8.954,20-20S36.045,17.5,25,17.5
	L25,17.5z"/>
<path fill="#D1D2D1" d="M75,19.5c9.925,0,18,8.075,18,18c0,9.925-8.074,18-18,18s-18-8.075-18-18C57,27.575,65.075,19.5,75,19.5
	 M75,17.5c-11.045,0-20,8.954-20,20s8.955,20,20,20c11.044,0,20-8.954,20-20S86.045,17.5,75,17.5L75,17.5z"/>
<path fill="#D1D2D1" d="M125.001,19.5c9.925,0,18,8.075,18,18c0,9.925-8.075,18-18,18s-18-8.075-18-18
	C107.001,27.575,115.076,19.5,125.001,19.5 M125.001,17.5c-11.045,0-20,8.954-20,20s8.955,20,20,20s20-8.954,20-20
	S136.046,17.5,125.001,17.5L125.001,17.5z"/>
<path fill="#D1D2D1" d="M175.001,19.5c9.925,0,18,8.075,18,18c0,9.925-8.075,18-18,18c-9.926,0-18-8.075-18-18
	C157.001,27.575,165.075,19.5,175.001,19.5 M175.001,17.5c-11.045,0-20,8.954-20,20s8.955,20,20,20s20-8.954,20-20
	S186.046,17.5,175.001,17.5L175.001,17.5z"/>
<path fill="#30BCAE" d="M85.466,31.952c-0.736,0.327-1.529,0.547-2.359,0.647c0.849-0.509,1.501-1.314,1.806-2.273
	c-0.794,0.471-1.672,0.812-2.61,0.997c-0.747-0.799-1.817-1.298-3-1.298c-2.269,0-4.109,1.841-4.109,4.11
	c0,0.323,0.036,0.636,0.105,0.936c-3.415-0.171-6.442-1.806-8.471-4.295c-0.354,0.609-0.558,1.315-0.558,2.068
	c0,1.424,0.726,2.683,1.83,3.421c-0.675-0.021-1.309-0.207-1.863-0.513v0.05c0,1.992,1.416,3.654,3.298,4.031
	c-0.345,0.096-0.708,0.145-1.082,0.145c-0.266,0-0.524-0.024-0.774-0.072c0.523,1.632,2.041,2.82,3.84,2.853
	c-1.407,1.103-3.18,1.759-5.105,1.759c-0.331,0-0.659-0.019-0.98-0.056c1.819,1.165,3.98,1.845,6.301,1.845
	c7.562,0,11.694-6.261,11.694-11.693c0-0.179-0.003-0.357-0.011-0.532C84.219,33.5,84.917,32.775,85.466,31.952"/>
<path fill="#30BCAE" d="M131.136,27.5h-12.269c-2.133,0-3.865,1.734-3.865,3.865v4.083v8.188c0,2.133,1.732,3.863,3.865,3.863
	h12.269c2.133,0,3.865-1.73,3.865-3.863v-8.188v-4.083C135.001,29.234,133.269,27.5,131.136,27.5z M132.249,29.806l0.441-0.001
	v0.439v2.952l-3.383,0.01l-0.012-3.389L132.249,29.806z M122.148,35.448c0.637-0.886,1.68-1.467,2.853-1.467
	c1.176,0,2.217,0.582,2.855,1.467c0.42,0.58,0.666,1.286,0.666,2.052c0,1.943-1.578,3.519-3.521,3.519
	c-1.942,0-3.519-1.576-3.519-3.519C121.482,36.734,121.73,36.028,122.148,35.448z M133.054,43.637c0,1.055-0.859,1.914-1.918,1.914
	h-12.269c-1.057,0-1.916-0.859-1.916-1.914v-8.188h2.984c-0.256,0.633-0.402,1.325-0.402,2.052c0,3.013,2.453,5.47,5.468,5.47
	c3.016,0,5.469-2.457,5.469-5.47c0-0.727-0.146-1.419-0.4-2.052h2.984V43.637z"/>
<path fill="#30BCAE" d="M178.883,37.509l-6.545,3.85v-7.693L178.883,37.509z M185.001,41.079v-7.153c0,0,0-3.448-3.446-3.448
	h-13.109c0,0-3.444,0-3.444,3.448v7.153c0,0,0,3.444,3.444,3.444h13.109C181.555,44.523,185.001,44.523,185.001,41.079"/>
</svg>
