<?xml version="1.0" encoding="utf-8"?>
<!-- Generator: Adobe Illustrator 16.0.1, SVG Export Plug-In . SVG Version: 6.00 Build 0)  -->
<!DOCTYPE svg PUBLIC "-//W3C//DTD SVG 1.1//EN" "http://www.w3.org/Graphics/SVG/1.1/DTD/svg11.dtd">
<svg version="1.1" id="Layer_1" xmlns="http://www.w3.org/2000/svg" xmlns:xlink="http://www.w3.org/1999/xlink" x="0px" y="0px"
	 width="175px" height="75px" viewBox="0 0 175 75" enable-background="new 0 0 175 75" xml:space="preserve">
<path fill="#2DBCAD" d="M14.837,36.739v9.264h-2.893V24.642h7.312c2.339,0,4.125,0.519,5.358,1.556
	c1.233,1.037,1.85,2.544,1.85,4.522c0,1.096-0.287,2.05-0.859,2.863c-0.572,0.812-1.406,1.458-2.502,1.938
	c1.174,0.381,2.019,1.001,2.532,1.857c0.514,0.856,0.771,1.916,0.771,3.178v2.013c0,0.664,0.073,1.262,0.22,1.79
	c0.147,0.529,0.401,0.959,0.763,1.292v0.353h-2.98c-0.382-0.333-0.626-0.822-0.734-1.468c-0.108-0.646-0.162-1.312-0.162-1.997
	v-1.952c0-1.155-0.337-2.086-1.013-2.79c-0.676-0.704-1.581-1.057-2.716-1.057H14.837z M14.837,34.464h4.125
	c1.635,0,2.812-0.311,3.531-0.933c0.719-0.621,1.079-1.567,1.079-2.84c0-1.204-0.35-2.136-1.05-2.796
	c-0.7-0.661-1.788-0.991-3.266-0.991h-4.419V34.464z"/>
<polygon fill="#2DBCAD" points="48.584,36.094 39.805,36.094 39.805,43.742 50.082,43.742 50.082,46.003 36.913,46.003 
	36.913,24.627 49.92,24.627 49.92,26.903 39.805,26.903 39.805,33.817 48.584,33.817 "/>
<polygon fill="#2DBCAD" points="66.981,40.395 67.465,42.171 67.554,42.171 68.039,40.395 73.558,24.627 76.686,24.627 
	68.743,46.003 66.262,46.003 58.319,24.627 61.461,24.627 "/>
<polygon fill="#2DBCAD" points="97.451,36.094 88.672,36.094 88.672,43.742 98.949,43.742 98.949,46.003 85.78,46.003 85.78,24.627 
	98.787,24.627 98.787,26.903 88.672,26.903 88.672,33.817 97.451,33.817 "/>
<path fill="#2DBCAD" d="M120.324,40.498h-8.045l-1.908,5.505h-2.951l7.707-21.375h2.48l7.547,21.375h-2.951L120.324,40.498z
	 M113.115,38.075h6.387l-3.113-9.176h-0.086L113.115,38.075z"/>
<polygon fill="#2DBCAD" points="137.299,43.742 147.723,43.742 147.723,46.003 134.406,46.003 134.406,24.627 137.299,24.627 "/>
<path fill="#FFFFFF" d="M52.517,52.539c2.19,0,3.508,1.057,3.508,2.982c0,1.858-1.318,2.967-3.508,2.967H50.96v3.284h-1.451v-9.233
	H52.517z M52.556,57.209c1.345,0,2.018-0.606,2.018-1.675c0-1.108-0.725-1.662-2.018-1.662H50.96v3.337H52.556z"/>
<path fill="#FFFFFF" d="M60.896,58.33c-0.172,0.013-0.541,0.013-0.712,0.013h-0.937v3.43h-1.451v-9.233h3.047
	c2.215,0,3.536,1.121,3.536,2.954c0,1.386-0.752,2.243-1.993,2.573l2.229,3.706h-1.742L60.896,58.33z M60.961,57.156
	c1.174,0,1.926-0.448,1.926-1.597c0-1.12-0.726-1.688-1.979-1.688h-1.662v3.284H60.961z"/>
<path fill="#FFFFFF" d="M70.778,52.354c2.744,0,4.828,1.939,4.828,4.802c0,2.849-2.084,4.788-4.828,4.788
	c-2.73,0-4.8-1.939-4.8-4.788C65.978,54.294,68.047,52.354,70.778,52.354 M70.778,60.571c1.899,0,3.363-1.305,3.363-3.415
	c0-2.124-1.464-3.43-3.363-3.43c-1.886,0-3.337,1.32-3.337,3.43C67.441,59.253,68.892,60.571,70.778,60.571"/>
<path fill="#FFFFFF" d="M81.983,57.946c0,2.56-1.146,3.998-3.337,3.998c-1.002,0-1.794-0.33-2.373-1.003l0.831-1.134
	c0.407,0.526,0.896,0.765,1.542,0.765c1.398,0,1.874-0.938,1.874-2.73V52.54h1.463V57.946z"/>
<polygon fill="#FFFFFF" points="84.473,52.539 90.857,52.539 90.857,53.897 85.924,53.897 85.924,56.312 89.709,56.312 
	89.709,57.672 85.924,57.672 85.924,60.413 90.896,60.413 90.896,61.772 84.473,61.772 "/>
<path fill="#FFFFFF" d="M101.307,59.135c-0.713,1.754-2.375,2.81-4.354,2.81c-2.703,0-4.748-1.912-4.748-4.815
	c0-2.861,2.031-4.774,4.762-4.774c2.125,0,3.627,1.161,4.234,2.572l-1.438,0.383c-0.383-0.66-1.24-1.583-2.85-1.583
	c-1.926,0-3.244,1.332-3.244,3.416c0,2.11,1.385,3.429,3.219,3.429c1.41,0,2.48-0.737,2.994-1.819L101.307,59.135z"/>
<polygon fill="#FFFFFF" points="107.098,53.897 107.098,61.771 105.646,61.771 105.646,53.897 102.588,53.897 102.588,52.539 
	110.158,52.539 110.158,53.897 "/>
<polygon fill="#FFFFFF" points="159.666,12.682 159.666,57.948 116.693,57.948 116.693,56.351 158.07,56.351 158.07,14.279 
	1.597,14.279 1.597,56.351 42.973,56.351 42.973,57.948 0,57.948 0,12.682 "/>
</svg>
